<svg width="33" height="24" viewBox="0 0 33 24" fill="none" xmlns="http://www.w3.org/2000/svg">
<path d="M32.5381 11.2915L26.4831 2.00238C26.2319 1.61714 25.8917 1.30127 25.4925 1.08279C25.0934 0.86432 24.6476 0.750007 24.1949 0.75H8.8051C8.35238 0.750001 7.90666 0.864312 7.50751 1.08279C7.10835 1.30126 6.76811 1.61714 6.51698 2.00238L0.461885 11.2915C0.160708 11.7535 -6.6305e-06 12.2963 2.05167e-10 12.8515L2.05168e-10 20.4375C2.05168e-10 21.9908 1.2312 23.25 2.75 23.25H30.25C31.7688 23.25 33 21.9908 33 20.4375V12.8515C33 12.2963 32.8393 11.7535 32.5381 11.2915ZM9.29569 4.5H23.7044L28.5932 12H21.5417L19.7083 15.75H13.2917L11.4583 12H4.40676L9.29569 4.5Z" fill="black"/>
</svg>
