<svg width="33" height="27" viewBox="0 0 33 27" fill="none" xmlns="http://www.w3.org/2000/svg">
<path d="M5.15625 20.7188H1.03125C0.757746 20.7188 0.495443 20.8274 0.302046 21.0208C0.108649 21.2142 0 21.4765 0 21.75L0 25.875C0 26.1485 0.108649 26.4108 0.302046 26.6042C0.495443 26.7976 0.757746 26.9062 1.03125 26.9062H5.15625C5.42975 26.9062 5.69206 26.7976 5.88545 26.6042C6.07885 26.4108 6.1875 26.1485 6.1875 25.875V21.75C6.1875 21.4765 6.07885 21.2142 5.88545 21.0208C5.69206 20.8274 5.42975 20.7188 5.15625 20.7188ZM5.15625 0.09375H1.03125C0.757746 0.09375 0.495443 0.202399 0.302046 0.395796C0.108649 0.589193 0 0.851496 0 1.125L0 5.25C0 5.5235 0.108649 5.78581 0.302046 5.9792C0.495443 6.1726 0.757746 6.28125 1.03125 6.28125H5.15625C5.42975 6.28125 5.69206 6.1726 5.88545 5.9792C6.07885 5.78581 6.1875 5.5235 6.1875 5.25V1.125C6.1875 0.851496 6.07885 0.589193 5.88545 0.395796C5.69206 0.202399 5.42975 0.09375 5.15625 0.09375ZM5.15625 10.4062H1.03125C0.757746 10.4062 0.495443 10.5149 0.302046 10.7083C0.108649 10.9017 0 11.164 0 11.4375L0 15.5625C0 15.836 0.108649 16.0983 0.302046 16.2917C0.495443 16.4851 0.757746 16.5938 1.03125 16.5938H5.15625C5.42975 16.5938 5.69206 16.4851 5.88545 16.2917C6.07885 16.0983 6.1875 15.836 6.1875 15.5625V11.4375C6.1875 11.164 6.07885 10.9017 5.88545 10.7083C5.69206 10.5149 5.42975 10.4062 5.15625 10.4062ZM31.9688 21.75H11.3438C11.0702 21.75 10.8079 21.8586 10.6145 22.052C10.4211 22.2454 10.3125 22.5077 10.3125 22.7812V24.8438C10.3125 25.1173 10.4211 25.3796 10.6145 25.573C10.8079 25.7664 11.0702 25.875 11.3438 25.875H31.9688C32.2423 25.875 32.5046 25.7664 32.698 25.573C32.8913 25.3796 33 25.1173 33 24.8438V22.7812C33 22.5077 32.8913 22.2454 32.698 22.052C32.5046 21.8586 32.2423 21.75 31.9688 21.75ZM31.9688 1.125H11.3438C11.0702 1.125 10.8079 1.23365 10.6145 1.42705C10.4211 1.62044 10.3125 1.88275 10.3125 2.15625V4.21875C10.3125 4.49225 10.4211 4.75456 10.6145 4.94795C10.8079 5.14135 11.0702 5.25 11.3438 5.25H31.9688C32.2423 5.25 32.5046 5.14135 32.698 4.94795C32.8913 4.75456 33 4.49225 33 4.21875V2.15625C33 1.88275 32.8913 1.62044 32.698 1.42705C32.5046 1.23365 32.2423 1.125 31.9688 1.125ZM31.9688 11.4375H11.3438C11.0702 11.4375 10.8079 11.5461 10.6145 11.7395C10.4211 11.9329 10.3125 12.1952 10.3125 12.4688V14.5312C10.3125 14.8048 10.4211 15.0671 10.6145 15.2605C10.8079 15.4539 11.0702 15.5625 11.3438 15.5625H31.9688C32.2423 15.5625 32.5046 15.4539 32.698 15.2605C32.8913 15.0671 33 14.8048 33 14.5312V12.4688C33 12.1952 32.8913 11.9329 32.698 11.7395C32.5046 11.5461 32.2423 11.4375 31.9688 11.4375Z" fill="black"/>
</svg>
